<mxfile host="app.diagrams.net" agent="Mozilla/5.0 (Macintosh; Intel Mac OS X 10_15_7) AppleWebKit/537.36 (KHTML, like Gecko) Chrome/128.0.0.0 Safari/537.36" version="24.7.12">
  <diagram name="Page-1" id="pPjdNwMg-SHNFjFrAQhE">
    <mxGraphModel dx="1553" dy="936" grid="1" gridSize="10" guides="1" tooltips="1" connect="1" arrows="1" fold="1" page="1" pageScale="1" pageWidth="827" pageHeight="1169" math="0" shadow="0">
      <root>
        <mxCell id="0" />
        <mxCell id="1" parent="0" />
        <mxCell id="9f76v18pSJerBioUtpDM-1" value="TIC TAC TOE" style="rounded=0;whiteSpace=wrap;html=1;" vertex="1" parent="1">
          <mxGeometry x="300" y="20" width="120" height="60" as="geometry" />
        </mxCell>
        <mxCell id="9f76v18pSJerBioUtpDM-2" value="&lt;p style=&quot;margin:0px;margin-top:4px;text-align:center;&quot;&gt;&lt;b&gt;Board&lt;/b&gt;&lt;/p&gt;" style="verticalAlign=top;align=left;overflow=fill;html=1;whiteSpace=wrap;" vertex="1" parent="1">
          <mxGeometry x="220" y="300" width="140" height="180" as="geometry" />
        </mxCell>
        <mxCell id="9f76v18pSJerBioUtpDM-3" value="&lt;p style=&quot;margin:0px;margin-top:4px;text-align:center;&quot;&gt;&lt;b&gt;ENUM -- Piecetype&lt;br&gt;&lt;br&gt;{X,O}&lt;br&gt;&lt;/b&gt;&lt;/p&gt;" style="verticalAlign=top;align=left;overflow=fill;html=1;whiteSpace=wrap;" vertex="1" parent="1">
          <mxGeometry x="640" y="570" width="140" height="60" as="geometry" />
        </mxCell>
        <mxCell id="9f76v18pSJerBioUtpDM-4" value="&lt;p style=&quot;margin:0px;margin-top:4px;text-align:center;&quot;&gt;&lt;b&gt;Player&lt;/b&gt;&lt;/p&gt;" style="verticalAlign=top;align=left;overflow=fill;html=1;whiteSpace=wrap;" vertex="1" parent="1">
          <mxGeometry x="10" y="330" width="140" height="160" as="geometry" />
        </mxCell>
        <mxCell id="9f76v18pSJerBioUtpDM-19" style="edgeStyle=orthogonalEdgeStyle;rounded=0;orthogonalLoop=1;jettySize=auto;html=1;" edge="1" parent="1" source="9f76v18pSJerBioUtpDM-5" target="9f76v18pSJerBioUtpDM-2">
          <mxGeometry relative="1" as="geometry" />
        </mxCell>
        <mxCell id="9f76v18pSJerBioUtpDM-5" value="&lt;p style=&quot;margin:0px;margin-top:4px;text-align:center;&quot;&gt;&lt;b&gt;TicTacToeGame&lt;/b&gt;&lt;/p&gt;" style="verticalAlign=top;align=left;overflow=fill;html=1;whiteSpace=wrap;" vertex="1" parent="1">
          <mxGeometry x="270" y="660" width="140" height="220" as="geometry" />
        </mxCell>
        <mxCell id="9f76v18pSJerBioUtpDM-20" style="edgeStyle=orthogonalEdgeStyle;rounded=0;orthogonalLoop=1;jettySize=auto;html=1;entryX=0.5;entryY=0;entryDx=0;entryDy=0;" edge="1" parent="1" source="9f76v18pSJerBioUtpDM-6" target="9f76v18pSJerBioUtpDM-3">
          <mxGeometry relative="1" as="geometry" />
        </mxCell>
        <mxCell id="9f76v18pSJerBioUtpDM-6" value="&lt;p style=&quot;margin:0px;margin-top:4px;text-align:center;&quot;&gt;&lt;b&gt;PlayingPieceO&lt;/b&gt;&lt;br&gt;&lt;/p&gt;" style="verticalAlign=top;align=left;overflow=fill;html=1;whiteSpace=wrap;" vertex="1" parent="1">
          <mxGeometry x="680" y="350" width="140" height="60" as="geometry" />
        </mxCell>
        <mxCell id="9f76v18pSJerBioUtpDM-7" value="&lt;p style=&quot;margin:0px;margin-top:4px;text-align:center;&quot;&gt;&lt;b&gt;PlayingPiece&lt;/b&gt;&lt;br&gt;&lt;/p&gt;&lt;hr size=&quot;1&quot; style=&quot;border-style:solid;&quot;&gt;&lt;div style=&quot;height:2px;&quot;&gt;&lt;/div&gt;" style="verticalAlign=top;align=left;overflow=fill;html=1;whiteSpace=wrap;" vertex="1" parent="1">
          <mxGeometry x="770" y="190" width="140" height="60" as="geometry" />
        </mxCell>
        <mxCell id="9f76v18pSJerBioUtpDM-15" style="edgeStyle=orthogonalEdgeStyle;rounded=0;orthogonalLoop=1;jettySize=auto;html=1;entryX=0.5;entryY=1;entryDx=0;entryDy=0;" edge="1" parent="1" source="9f76v18pSJerBioUtpDM-8" target="9f76v18pSJerBioUtpDM-5">
          <mxGeometry relative="1" as="geometry" />
        </mxCell>
        <mxCell id="9f76v18pSJerBioUtpDM-8" value="&lt;p style=&quot;margin:0px;margin-top:4px;text-align:center;&quot;&gt;&lt;b&gt;Main&lt;/b&gt;&lt;/p&gt;" style="verticalAlign=top;align=left;overflow=fill;html=1;whiteSpace=wrap;" vertex="1" parent="1">
          <mxGeometry x="270" y="920" width="140" height="150" as="geometry" />
        </mxCell>
        <mxCell id="9f76v18pSJerBioUtpDM-21" style="edgeStyle=orthogonalEdgeStyle;rounded=0;orthogonalLoop=1;jettySize=auto;html=1;entryX=1;entryY=0.5;entryDx=0;entryDy=0;" edge="1" parent="1" source="9f76v18pSJerBioUtpDM-10" target="9f76v18pSJerBioUtpDM-3">
          <mxGeometry relative="1" as="geometry" />
        </mxCell>
        <mxCell id="9f76v18pSJerBioUtpDM-10" value="&lt;p style=&quot;margin: 4px 0px 0px; text-align: center;&quot;&gt;&lt;b&gt;PlayingPieceX&lt;/b&gt;&lt;br&gt;&lt;/p&gt;&lt;hr style=&quot;border-style: solid;&quot; size=&quot;1&quot;&gt;" style="verticalAlign=top;align=left;overflow=fill;html=1;whiteSpace=wrap;" vertex="1" parent="1">
          <mxGeometry x="930" y="320" width="140" height="100" as="geometry" />
        </mxCell>
        <mxCell id="9f76v18pSJerBioUtpDM-11" value="" style="shape=flexArrow;endArrow=classic;html=1;rounded=0;exitX=0.086;exitY=1.017;exitDx=0;exitDy=0;exitPerimeter=0;entryX=0.65;entryY=0.067;entryDx=0;entryDy=0;entryPerimeter=0;" edge="1" parent="1" source="9f76v18pSJerBioUtpDM-7" target="9f76v18pSJerBioUtpDM-6">
          <mxGeometry width="50" height="50" relative="1" as="geometry">
            <mxPoint x="770" y="380" as="sourcePoint" />
            <mxPoint x="820" y="330" as="targetPoint" />
          </mxGeometry>
        </mxCell>
        <mxCell id="9f76v18pSJerBioUtpDM-12" value="" style="shape=flexArrow;endArrow=classic;html=1;rounded=0;entryX=0.5;entryY=0;entryDx=0;entryDy=0;exitX=0.9;exitY=1;exitDx=0;exitDy=0;exitPerimeter=0;" edge="1" parent="1" source="9f76v18pSJerBioUtpDM-7" target="9f76v18pSJerBioUtpDM-10">
          <mxGeometry width="50" height="50" relative="1" as="geometry">
            <mxPoint x="904" y="260" as="sourcePoint" />
            <mxPoint x="900" y="280" as="targetPoint" />
          </mxGeometry>
        </mxCell>
        <mxCell id="9f76v18pSJerBioUtpDM-13" value="obj = TicTacToe&lt;br&gt;&lt;br&gt;obj.initialzie()&lt;br&gt;&lt;br&gt;obj.start()" style="text;html=1;align=center;verticalAlign=middle;whiteSpace=wrap;rounded=0;" vertex="1" parent="1">
          <mxGeometry x="300" y="980" width="90" height="50" as="geometry" />
        </mxCell>
        <mxCell id="9f76v18pSJerBioUtpDM-14" style="edgeStyle=orthogonalEdgeStyle;rounded=0;orthogonalLoop=1;jettySize=auto;html=1;exitX=0.5;exitY=1;exitDx=0;exitDy=0;" edge="1" parent="1" source="9f76v18pSJerBioUtpDM-8" target="9f76v18pSJerBioUtpDM-8">
          <mxGeometry relative="1" as="geometry" />
        </mxCell>
        <mxCell id="9f76v18pSJerBioUtpDM-16" value="Deque&amp;lt;Player&amp;gt;&lt;br&gt;Board board&lt;br&gt;&lt;br&gt;intialize()&lt;br&gt;start()&lt;br&gt;isWinner()" style="text;html=1;align=center;verticalAlign=middle;whiteSpace=wrap;rounded=0;" vertex="1" parent="1">
          <mxGeometry x="297.5" y="740" width="85" height="90" as="geometry" />
        </mxCell>
        <mxCell id="9f76v18pSJerBioUtpDM-17" style="edgeStyle=orthogonalEdgeStyle;rounded=0;orthogonalLoop=1;jettySize=auto;html=1;entryX=0.436;entryY=1.017;entryDx=0;entryDy=0;entryPerimeter=0;" edge="1" parent="1" source="9f76v18pSJerBioUtpDM-5" target="9f76v18pSJerBioUtpDM-4">
          <mxGeometry relative="1" as="geometry" />
        </mxCell>
        <mxCell id="9f76v18pSJerBioUtpDM-23" style="edgeStyle=orthogonalEdgeStyle;rounded=0;orthogonalLoop=1;jettySize=auto;html=1;entryX=0;entryY=0.25;entryDx=0;entryDy=0;exitX=1;exitY=0.544;exitDx=0;exitDy=0;exitPerimeter=0;" edge="1" parent="1" source="9f76v18pSJerBioUtpDM-2" target="9f76v18pSJerBioUtpDM-7">
          <mxGeometry relative="1" as="geometry">
            <mxPoint x="380" y="400" as="sourcePoint" />
          </mxGeometry>
        </mxCell>
        <mxCell id="9f76v18pSJerBioUtpDM-22" value="size&lt;br&gt;PlayingPieces[][]&lt;br&gt;&lt;div&gt;&lt;br&gt;Board()&lt;br&gt;addPiece()&lt;br&gt;getFreeCells()&lt;br&gt;printBoard()&lt;/div&gt;" style="text;html=1;align=center;verticalAlign=middle;whiteSpace=wrap;rounded=0;" vertex="1" parent="1">
          <mxGeometry x="235" y="350" width="110" height="100" as="geometry" />
        </mxCell>
        <mxCell id="9f76v18pSJerBioUtpDM-24" value="name&lt;br&gt;PlayingPiece" style="text;html=1;align=center;verticalAlign=middle;whiteSpace=wrap;rounded=0;" vertex="1" parent="1">
          <mxGeometry x="50" y="375" width="60" height="30" as="geometry" />
        </mxCell>
        <mxCell id="9f76v18pSJerBioUtpDM-26" value="" style="endArrow=none;html=1;rounded=0;" edge="1" parent="1">
          <mxGeometry width="50" height="50" relative="1" as="geometry">
            <mxPoint x="80" y="330" as="sourcePoint" />
            <mxPoint x="80" y="130" as="targetPoint" />
          </mxGeometry>
        </mxCell>
        <mxCell id="9f76v18pSJerBioUtpDM-27" value="" style="endArrow=none;html=1;rounded=0;" edge="1" parent="1">
          <mxGeometry width="50" height="50" relative="1" as="geometry">
            <mxPoint x="80" y="130" as="sourcePoint" />
            <mxPoint x="840" y="130" as="targetPoint" />
          </mxGeometry>
        </mxCell>
        <mxCell id="9f76v18pSJerBioUtpDM-28" value="" style="endArrow=classic;html=1;rounded=0;entryX=0.5;entryY=0;entryDx=0;entryDy=0;" edge="1" parent="1" target="9f76v18pSJerBioUtpDM-7">
          <mxGeometry width="50" height="50" relative="1" as="geometry">
            <mxPoint x="840" y="130" as="sourcePoint" />
            <mxPoint x="940" y="100" as="targetPoint" />
          </mxGeometry>
        </mxCell>
      </root>
    </mxGraphModel>
  </diagram>
</mxfile>
